<svg xmlns="http://www.w3.org/2000/svg" viewBox="0 0 188 48" width="188" height="48" preserveAspectRatio="xMidYMid meet" role="img" aria-label="VoidRun">
  <title>VoidRun</title>
  <desc>Wordmark as outlines (DejaVu Sans Bold source). Avoids SVG text layout differences between local mint dev and Mintlify production when the logo is an img.</desc>
  <rect x="2" y="2" width="44" height="44" rx="11" fill="#1A1714"/>
  <rect x="15" y="15" width="18" height="18" rx="5" fill="#F2711C"/>
  <g transform="translate(55, 24) scale(1.25) translate(-55, -24)">
    <path fill="#0F172A" d="M58.32 33L52.11 16.23L56.46 16.23L60.91 28.61L65.34 16.23L69.69 16.23L63.48 33L58.32 33ZM77.72 22.99L77.72 22.99Q76.38 22.99 75.68 23.95Q74.98 24.91 74.98 26.72L74.98 26.72Q74.98 28.53 75.68 29.49Q76.38 30.45 77.72 30.45L77.72 30.45Q79.03 30.45 79.73 29.49Q80.42 28.53 80.42 26.72L80.42 26.72Q80.42 24.91 79.73 23.95Q79.03 22.99 77.72 22.99ZM77.72 20.12L77.72 20.12Q80.96 20.12 82.79 21.87Q84.61 23.62 84.61 26.72L84.61 26.72Q84.61 29.82 82.79 31.57Q80.96 33.33 77.72 33.33L77.72 33.33Q74.46 33.33 72.62 31.57Q70.79 29.82 70.79 26.72L70.79 26.72Q70.79 23.62 72.62 21.87Q74.46 20.12 77.72 20.12ZM87.53 33L87.53 20.42L91.55 20.42L91.55 33L87.53 33ZM87.53 18.80L87.53 15.53L91.55 15.53L91.55 18.80L87.53 18.80ZM103.97 22.26L103.97 22.26L103.97 15.53L108.02 15.53L108.02 33L103.97 33L103.97 31.18Q103.14 32.29 102.14 32.81Q101.14 33.33 99.83 33.33L99.83 33.33Q97.51 33.33 96.01 31.48Q94.52 29.63 94.52 26.72L94.52 26.72Q94.52 23.81 96.01 21.97Q97.51 20.12 99.83 20.12L99.83 20.12Q101.13 20.12 102.14 20.64Q103.14 21.16 103.97 22.26ZM101.32 30.41L101.32 30.41Q102.62 30.41 103.30 29.46Q103.97 28.52 103.97 26.72L103.97 26.72Q103.97 24.93 103.30 23.98Q102.62 23.04 101.32 23.04L101.32 23.04Q100.04 23.04 99.36 23.98Q98.69 24.93 98.69 26.72L98.69 26.72Q98.69 28.52 99.36 29.46Q100.04 30.41 101.32 30.41ZM116.38 23.67L118.20 23.67Q119.56 23.67 120.15 23.16Q120.74 22.66 120.74 21.50L120.74 21.50Q120.74 20.35 120.15 19.86Q119.56 19.37 118.20 19.37L118.20 19.37L116.38 19.37L116.38 23.67ZM117.61 26.65L116.38 26.65L116.38 33L112.06 33L112.06 16.23L118.66 16.23Q121.98 16.23 123.52 17.34Q125.07 18.46 125.07 20.86L125.07 20.86Q125.07 22.52 124.26 23.59Q123.46 24.66 121.84 25.16L121.84 25.16Q122.73 25.36 123.43 26.08Q124.13 26.79 124.85 28.24L124.85 28.24L127.20 33L122.59 33L120.55 28.83Q119.93 27.58 119.30 27.12Q118.66 26.65 117.61 26.65L117.61 26.65ZM129.46 28.10L129.46 28.10L129.46 20.42L133.50 20.42L133.50 21.68Q133.50 22.70 133.49 24.25Q133.48 25.79 133.48 26.31L133.48 26.31Q133.48 27.82 133.56 28.49Q133.63 29.16 133.83 29.46L133.83 29.46Q134.07 29.86 134.47 30.07Q134.87 30.28 135.39 30.28L135.39 30.28Q136.64 30.28 137.36 29.32Q138.08 28.35 138.08 26.63L138.08 26.63L138.08 20.42L142.10 20.42L142.10 33L138.08 33L138.08 31.18Q137.17 32.28 136.16 32.80Q135.14 33.33 133.92 33.33L133.92 33.33Q131.74 33.33 130.60 31.99Q129.46 30.65 129.46 28.10ZM158.61 25.34L158.61 25.34L158.61 33L154.57 33L154.57 31.75L154.57 27.14Q154.57 25.51 154.49 24.89Q154.42 24.27 154.24 23.98L154.24 23.98Q154.01 23.59 153.60 23.37Q153.20 23.15 152.68 23.15L152.68 23.15Q151.42 23.15 150.70 24.12Q149.99 25.09 149.99 26.81L149.99 26.81L149.99 33L145.97 33L145.97 20.42L149.99 20.42L149.99 22.26Q150.90 21.16 151.92 20.64Q152.94 20.12 154.17 20.12L154.17 20.12Q156.35 20.12 157.48 21.46Q158.61 22.79 158.61 25.34Z"/>
  </g>
</svg>
